<svg width="72" height="64" viewBox="0 0 72 64" fill="none" xmlns="http://www.w3.org/2000/svg">
<path fill-rule="evenodd" clip-rule="evenodd" d="M31.7864 3.24084C22.3248 4.79975 14.0222 11.59 10.5854 20.58C9.07246 24.5376 8.62291 27.1301 8.62187 31.9019L8.62117 35.402L7.77354 36.4289C5.94727 38.6415 3.90245 42.4789 3.31876 44.7894C2.90318 46.4342 2.89174 50.2546 3.29745 51.8515C3.96969 54.4963 5.59806 56.9764 7.55847 58.341C9.50225 59.6942 10.6762 60 13.9244 60H16.0609L16.1124 43.7482L16.1641 27.4965L16.6354 25.7414C17.5593 22.3011 19.1371 19.3809 21.3424 17.0296C25.1688 12.9495 30.4278 10.5584 35.6566 10.5216C43.5678 10.4659 50.6342 14.9218 54.1041 22.1546C54.9829 23.9863 55.5254 25.7896 55.7458 27.6116C55.8855 28.7662 56.1056 46.4651 56.1063 56.6048L56.1065 60H58.4097C61.9534 60 63.4951 59.4448 65.5736 57.4204C67.035 55.9969 67.9378 54.5519 68.535 52.6805C68.9646 51.3345 69.0017 50.9865 68.9999 48.3205C68.9984 45.6333 68.9637 45.3182 68.5211 43.9746C67.6863 41.4398 66.1312 38.6569 64.2036 36.2472L63.5265 35.4007L63.4793 31.8108C63.4428 29.0162 63.3523 27.8195 63.0707 26.41C62.0423 21.2616 60.7912 18.2463 58.113 14.4608C56.9324 12.7922 54.4237 10.122 52.882 8.89302C49.2218 5.97531 44.6592 3.94343 40.1625 3.22835C38.2141 2.91852 33.7016 2.92522 31.7864 3.24084Z" fill="white"/>
<path d="M41.6591 36.2996C42.2637 35.503 43.8002 34.5209 44.9565 34.1919C45.4649 34.0472 46.836 33.9817 48.8696 34.0044L52 34.0396V47.0198V60H48.5217H45.0435L43.8739 59.4216C42.4195 58.7025 41.3153 57.5418 40.5677 55.9467L40 54.7353V47.1106V39.4859L40.564 38.2428C40.8743 37.5592 41.367 36.6847 41.6591 36.2996Z" fill="#36A300"/>
<path d="M20 60V46.9999V34L22.9373 34.0022C26.0423 34.0043 27.1026 34.1805 28.4609 34.9195C29.8246 35.6616 30.959 37.1545 31.61 39.0642C31.9965 40.1977 32.0043 40.3591 31.9992 46.9837C31.9939 53.5368 31.982 53.7814 31.6098 54.8873C31.0993 56.4035 30.6016 57.2049 29.5453 58.2106C28.052 59.6325 27.2827 59.8464 23.363 59.9289L20 60Z" fill="#36A300"/>
</svg>
