<svg width="334" height="64" viewBox="0 0 334 64" fill="none" xmlns="http://www.w3.org/2000/svg">
<path d="M296.269 64L305.149 0H324.989L326.349 10.56H314.029L313.149 27.52L311.469 40.08H316.349L313.549 50.64H310.749L308.589 64H296.269ZM321.389 64L317.069 27.44L316.669 14.56H326.589L333.709 64H321.389Z" fill="white"/>
<path d="M259.841 64V0H271.841V64H259.841ZM275.841 64V53.44H276.081C277.761 53.44 279.041 53.0533 279.921 52.28C280.801 51.5067 281.254 50.4 281.281 48.96C281.361 46.1067 281.414 43.2667 281.441 40.44C281.494 37.6133 281.521 34.7867 281.521 31.96C281.521 29.1333 281.494 26.3067 281.441 23.48C281.414 20.6267 281.361 17.7867 281.281 14.96C281.254 13.5467 280.801 12.4667 279.921 11.72C279.041 10.9467 277.761 10.56 276.081 10.56H275.841V0H276.081C282.081 0 286.414 1.28 289.081 3.84C291.774 6.37333 293.174 10.56 293.281 16.4C293.361 20.1067 293.414 23.6267 293.441 26.96C293.467 30.2933 293.467 33.6267 293.441 36.96C293.414 40.2933 293.361 43.8133 293.281 47.52C293.174 53.3867 291.774 57.6 289.081 60.16C286.414 62.72 282.081 64 276.081 64H275.841Z" fill="white"/>
<path d="M235.203 64L230.403 43.04L227.123 10.48H216.403V0H233.763L238.563 20.4L242.963 53.44H253.443V64H235.203ZM216.403 64V14.48H223.843L226.963 43.36L228.003 64H216.403ZM246.083 49.44L242.403 20.4L241.843 0H253.443V49.44H246.083Z" fill="white"/>
<path d="M183.747 64V0H195.747V64H183.747ZM199.667 64V53.44H211.427V64H199.667ZM199.667 36.72V26.16H210.627V36.72H199.667ZM199.667 10.56V0H211.427V10.56H199.667Z" fill="white"/>
<path d="M165.31 64V0H177.31V64H165.31Z" fill="white"/>
<path d="M139.394 64V14.56H151.394V64H139.394ZM129.074 10.56V0H161.634V10.56H129.074Z" fill="white"/>
<path d="M97.8583 64L91.8583 42.4H91.7783V31.84H91.8583C93.5383 31.84 94.805 31.4533 95.6583 30.68C96.5117 29.9067 96.9783 28.8267 97.0583 27.44C97.1383 26.1333 97.1917 24.7733 97.2183 23.36C97.245 21.92 97.245 20.4933 97.2183 19.08C97.1917 17.64 97.1383 16.2667 97.0583 14.96C96.9783 13.5467 96.5117 12.4667 95.6583 11.72C94.805 10.9467 93.5383 10.56 91.8583 10.56H91.7783V0H91.8583C97.8317 0 102.138 1.21333 104.778 3.64C107.445 6.04 108.872 10.0267 109.058 15.6C109.112 17.0933 109.138 18.4 109.138 19.52C109.165 20.64 109.165 21.76 109.138 22.88C109.138 24 109.112 25.3067 109.058 26.8C108.818 33.4667 106.738 37.92 102.818 40.16L110.338 64H97.8583ZM75.7783 64V0H87.7783V64H75.7783Z" fill="white"/>
<path d="M43.1221 64V0H55.1221V64H43.1221ZM59.0421 64V53.44H70.8021V64H59.0421ZM59.0421 36.72V26.16H70.0021V36.72H59.0421ZM59.0421 10.56V0H70.8021V10.56H59.0421Z" fill="white"/>
<path d="M0.799805 0H13.1998L17.9198 32.08L18.7998 50.64H8.3198L0.799805 0ZM8.9598 53.44H21.2798L21.9998 32.08L26.7198 0H39.1198L29.8398 64H10.4798L8.9598 53.44Z" fill="white"/>
</svg>
